<?xml version="1.0" encoding="UTF-8"?>
<svg id="Layer_2" data-name="Layer 2" xmlns="http://www.w3.org/2000/svg" viewBox="0 0 50.31 15.63">
  <g id="Layer_2-2" data-name="Layer 2">
    <g>
      <path d="M12.03,8.93c-.1-1.96-.22-4.31-.2-6.06h-.06c-.46,1.64-1.02,3.39-1.7,5.33l-2.38,6.81h-1.32l-2.18-6.69c-.64-1.98-1.18-3.79-1.56-5.46h-.04c-.04,1.75-.14,4.1-.26,6.21l-.36,6.02H.33L1.27,1.06h2.22l2.3,6.79c.56,1.73,1.02,3.27,1.36,4.73h.06c.34-1.42.82-2.96,1.42-4.73l2.4-6.79h2.22l.84,14.04h-1.7l-.34-6.17Z" style="fill: #000; stroke: #000; stroke-miterlimit: 10; stroke-width: .61px;"/>
      <path d="M22.15,15.09l-.14-1.27h-.06c-.54.79-1.58,1.5-2.96,1.5-1.96,0-2.96-1.44-2.96-2.9,0-2.44,2.08-3.77,5.81-3.75v-.21c0-.83-.22-2.33-2.2-2.33-.9,0-1.84.29-2.52.75l-.4-1.21c.8-.54,1.96-.89,3.18-.89,2.96,0,3.67,2.1,3.67,4.12v3.77c0,.87.04,1.73.16,2.42h-1.6ZM21.89,9.95c-1.92-.04-4.09.31-4.09,2.27,0,1.19.76,1.75,1.66,1.75,1.26,0,2.06-.83,2.34-1.69.06-.19.1-.4.1-.58v-1.75Z" style="fill: #000; stroke: #000; stroke-miterlimit: 10; stroke-width: .61px;"/>
      <path d="M28.46,2.12v2.89h2.52v1.4h-2.52v5.44c0,1.25.34,1.96,1.32,1.96.46,0,.8-.06,1.02-.12l.08,1.38c-.34.15-.88.25-1.56.25-.82,0-1.48-.27-1.9-.77-.5-.54-.68-1.44-.68-2.62v-5.5h-1.5v-1.4h1.5v-2.42l1.72-.48Z" style="fill: #000; stroke: #000; stroke-miterlimit: 10; stroke-width: .61px;"/>
      <path d="M39.72,14.72c-.46.25-1.48.58-2.78.58-2.92,0-4.81-2.06-4.81-5.14s2.04-5.35,5.19-5.35c1.04,0,1.96.27,2.44.52l-.4,1.42c-.42-.25-1.08-.48-2.04-.48-2.22,0-3.42,1.71-3.42,3.81,0,2.33,1.44,3.77,3.36,3.77,1,0,1.66-.27,2.16-.5l.3,1.37Z" style="fill: #000; stroke: #000; stroke-miterlimit: 10; stroke-width: .61px;"/>
      <path d="M41.78.31h1.76v6.29h.04c.28-.52.72-.98,1.26-1.29.52-.31,1.14-.52,1.8-.52,1.3,0,3.38.83,3.38,4.31v6h-1.76v-5.79c0-1.62-.58-3-2.24-3-1.14,0-2.04.83-2.36,1.83-.1.25-.12.52-.12.87v6.08h-1.76V.31Z" style="fill: #000; stroke: #000; stroke-miterlimit: 10; stroke-width: .61px;"/>
    </g>
  </g>
</svg>