<?xml version="1.0" encoding="UTF-8"?>
<svg id="Layer_2" data-name="Layer 2" xmlns="http://www.w3.org/2000/svg" viewBox="0 0 57.5 20.05">
  <g id="Layer_2-2" data-name="Layer 2">
    <g>
      <path d="M.79,12.89c.78.5,1.92.92,3.12.92,1.78,0,2.82-.98,2.82-2.4,0-1.31-.72-2.06-2.54-2.79-2.2-.81-3.56-2-3.56-3.98C.63,2.45,2.37.83,4.99.83c1.38,0,2.38.33,2.98.69l-.48,1.48c-.44-.25-1.34-.67-2.56-.67-1.84,0-2.54,1.15-2.54,2.1,0,1.31.82,1.96,2.68,2.71,2.28.92,3.44,2.06,3.44,4.12,0,2.17-1.54,4.04-4.71,4.04-1.3,0-2.72-.4-3.44-.9l.44-1.52Z" style="fill: #000; stroke: #000; stroke-miterlimit: 10; stroke-width: .61px;"/>
      <path d="M18.91,12.34c0,1.04.02,1.96.08,2.75h-1.56l-.1-1.65h-.04c-.46.81-1.48,1.87-3.2,1.87-1.52,0-3.34-.87-3.34-4.42v-5.89h1.76v5.58c0,1.92.56,3.21,2.16,3.21,1.18,0,2-.85,2.32-1.67.1-.27.16-.6.16-.94v-6.19h1.76v7.33Z" style="fill: #000; stroke: #000; stroke-miterlimit: 10; stroke-width: .61px;"/>
      <path d="M21.82,8.3c0-1.29-.04-2.33-.08-3.29h1.58l.08,1.73h.04c.72-1.23,1.86-1.96,3.44-1.96,2.34,0,4.09,2.06,4.09,5.12,0,3.62-2.12,5.42-4.39,5.42-1.28,0-2.4-.58-2.98-1.58h-.04v5.48h-1.74v-10.91ZM23.56,10.99c0,.27.04.52.08.75.32,1.27,1.38,2.15,2.64,2.15,1.86,0,2.94-1.58,2.94-3.9,0-2.02-1.02-3.75-2.88-3.75-1.2,0-2.32.9-2.66,2.27-.06.23-.12.5-.12.75v1.73Z" style="fill: #000; stroke: #000; stroke-miterlimit: 10; stroke-width: .61px;"/>
      <path d="M33.18,8.3c0-1.29-.04-2.33-.08-3.29h1.58l.08,1.73h.04c.72-1.23,1.86-1.96,3.44-1.96,2.34,0,4.09,2.06,4.09,5.12,0,3.62-2.12,5.42-4.39,5.42-1.28,0-2.4-.58-2.98-1.58h-.04v5.48h-1.74v-10.91ZM34.92,10.99c0,.27.04.52.08.75.32,1.27,1.38,2.15,2.64,2.15,1.86,0,2.94-1.58,2.94-3.9,0-2.02-1.02-3.75-2.88-3.75-1.2,0-2.32.9-2.66,2.27-.06.23-.12.5-.12.75v1.73Z" style="fill: #000; stroke: #000; stroke-miterlimit: 10; stroke-width: .61px;"/>
      <path d="M44.54.31h1.76v14.79h-1.76V.31Z" style="fill: #000; stroke: #000; stroke-miterlimit: 10; stroke-width: .61px;"/>
      <path d="M49.89,5.01l2.12,5.96c.22.67.46,1.46.62,2.06h.04c.18-.6.38-1.37.62-2.1l1.92-5.92h1.86l-2.64,7.19c-1.26,3.46-2.12,5.23-3.32,6.31-.86.79-1.72,1.1-2.16,1.19l-.44-1.54c.44-.15,1.02-.44,1.54-.9.48-.4,1.08-1.1,1.48-2.04.08-.19.14-.33.14-.44s-.04-.25-.12-.48l-3.58-9.29h1.92Z" style="fill: #000; stroke: #000; stroke-miterlimit: 10; stroke-width: .61px;"/>
    </g>
  </g>
</svg>