<?xml version="1.0" encoding="UTF-8"?>
<svg id="Layer_2" data-name="Layer 2" xmlns="http://www.w3.org/2000/svg" xmlns:xlink="http://www.w3.org/1999/xlink" viewBox="0 0 274.19 56.53">
  <defs>
    <linearGradient id="linear-gradient" x1="0" y1="28.27" x2="274.19" y2="28.27" gradientUnits="userSpaceOnUse">
      <stop offset="0" stop-color="#00fff7"/>
      <stop offset=".49" stop-color="#a3e9ff"/>
      <stop offset="1" stop-color="#a3ffd8"/>
    </linearGradient>
  </defs>
  <g id="Layer_2-2" data-name="Layer 2-2">
    <path d="M137.09,56.53c-28.23,0-45.35-13.22-61.91-26C56,15.72,37.88,1.73,2.98,6.1,1.52,6.27.2,5.25.02,3.8-.16,2.35.87,1.02,2.32.84,39.39-3.79,59.23,11.53,78.42,26.34c16.58,12.8,32.25,24.9,58.67,24.9s42.09-12.09,58.67-24.9C214.95,11.53,234.79-3.79,271.87.84c1.45.18,2.48,1.5,2.3,2.96s-1.51,2.48-2.96,2.3c-34.91-4.37-53.03,9.63-72.21,24.44-16.56,12.78-33.68,26-61.91,26Z" style="fill: url(#linear-gradient); stroke-width: 0px;"/>
  </g>
</svg>