<?xml version="1.0" encoding="UTF-8"?>
<svg id="Layer_2" data-name="Layer 2" xmlns="http://www.w3.org/2000/svg" viewBox="0 0 69.75 15.63">
  <g id="Layer_2-2" data-name="Layer 2">
    <g>
      <path d="M.31,1.24c1.06-.17,2.32-.29,3.7-.29,2.5,0,4.27.6,5.45,1.75,1.2,1.15,1.9,2.77,1.9,5.04s-.68,4.17-1.94,5.46c-1.26,1.31-3.34,2.02-5.95,2.02-1.24,0-2.28-.06-3.16-.17V1.24ZM2.04,13.66c.44.08,1.08.1,1.76.1,3.72,0,5.73-2.17,5.73-5.96.02-3.31-1.78-5.42-5.45-5.42-.9,0-1.58.08-2.04.19v11.08Z" style="fill: #000; stroke: #000; stroke-miterlimit: 10; stroke-width: .61px;"/>
      <path d="M14.6,10.39c.04,2.48,1.56,3.5,3.32,3.5,1.26,0,2.02-.23,2.68-.52l.3,1.31c-.62.29-1.68.62-3.22.62-2.98,0-4.75-2.04-4.75-5.08s1.72-5.44,4.53-5.44c3.16,0,3.99,2.9,3.99,4.75,0,.38-.04.67-.06.85h-6.79ZM19.75,9.07c.02-1.17-.46-2.98-2.44-2.98-1.78,0-2.56,1.71-2.7,2.98h5.13Z" style="fill: #000; stroke: #000; stroke-miterlimit: 10; stroke-width: .61px;"/>
      <path d="M23.63,7.74c0-1.04-.02-1.9-.08-2.73h1.54l.08,1.62h.06c.54-.96,1.44-1.85,3.04-1.85,1.32,0,2.32.83,2.74,2.02h.04c.3-.56.68-1,1.08-1.31.58-.46,1.22-.71,2.14-.71,1.28,0,3.18.88,3.18,4.37v5.94h-1.72v-5.71c0-1.94-.68-3.1-2.1-3.1-1,0-1.78.77-2.08,1.67-.08.25-.14.58-.14.92v6.23h-1.72v-6.04c0-1.6-.68-2.77-2.02-2.77-1.1,0-1.9.92-2.18,1.83-.1.27-.14.58-.14.9v6.08h-1.72v-7.35Z" style="fill: #000; stroke: #000; stroke-miterlimit: 10; stroke-width: .61px;"/>
      <path d="M45.63,15.09l-.14-1.27h-.06c-.54.79-1.58,1.5-2.96,1.5-1.96,0-2.96-1.44-2.96-2.9,0-2.44,2.08-3.77,5.81-3.75v-.21c0-.83-.22-2.33-2.2-2.33-.9,0-1.84.29-2.52.75l-.4-1.21c.8-.54,1.96-.9,3.18-.9,2.96,0,3.67,2.1,3.67,4.12v3.77c0,.87.04,1.73.16,2.42h-1.6ZM45.37,9.95c-1.92-.04-4.09.31-4.09,2.27,0,1.19.76,1.75,1.66,1.75,1.26,0,2.06-.83,2.34-1.69.06-.19.1-.4.1-.58v-1.75Z" style="fill: #000; stroke: #000; stroke-miterlimit: 10; stroke-width: .61px;"/>
      <path d="M49.9,7.74c0-1.04-.02-1.9-.08-2.73h1.56l.1,1.67h.04c.48-.96,1.6-1.9,3.2-1.9,1.34,0,3.42.83,3.42,4.29v6.02h-1.76v-5.81c0-1.62-.58-2.98-2.24-2.98-1.16,0-2.06.85-2.36,1.87-.08.23-.12.54-.12.85v6.06h-1.76v-7.35Z" style="fill: #000; stroke: #000; stroke-miterlimit: 10; stroke-width: .61px;"/>
      <path d="M69.33.31v12.18c0,.9.02,1.92.08,2.6h-1.58l-.08-1.75h-.04c-.54,1.12-1.72,1.98-3.3,1.98-2.34,0-4.13-2.06-4.13-5.12-.02-3.35,1.98-5.42,4.33-5.42,1.48,0,2.48.73,2.92,1.54h.04V.31h1.76ZM67.57,9.12c0-.23-.02-.54-.08-.77-.26-1.17-1.22-2.12-2.54-2.12-1.82,0-2.9,1.67-2.9,3.9,0,2.04.96,3.73,2.86,3.73,1.18,0,2.26-.81,2.58-2.19.06-.25.08-.5.08-.79v-1.75Z" style="fill: #000; stroke: #000; stroke-miterlimit: 10; stroke-width: .61px;"/>
    </g>
  </g>
</svg>